<svg version="1.1" id="Layer_1" xmlns="http://www.w3.org/2000/svg" xmlns:xlink="http://www.w3.org/1999/xlink" x="0px" y="0px"
	 width="100%" viewBox="0 0 177 131" enable-background="new 0 0 177 131" xml:space="preserve">
<path fill="#FEFEFE" opacity="1.000000" stroke="none" 
	d="
M122.000000,132.000000 
	C81.333344,132.000000 41.166691,132.000000 1.000027,132.000000 
	C1.000018,88.333359 1.000018,44.666718 1.000009,1.000056 
	C59.999958,1.000037 118.999916,1.000037 177.999908,1.000019 
	C177.999939,44.666611 177.999939,88.333221 177.999969,131.999908 
	C159.500000,132.000000 141.000000,132.000000 122.000000,132.000000 
M108.433426,32.954872 
	C107.960983,33.209656 107.488533,33.464439 106.375595,33.949951 
	C105.923393,33.971470 105.471191,33.992985 104.129135,33.959606 
	C95.935143,35.812180 87.738487,37.653389 79.558548,39.566059 
	C79.281380,39.630867 79.172394,40.414902 78.547668,41.058483 
	C78.547668,41.058483 78.069473,41.035053 77.204521,40.961952 
	C77.039375,40.962631 76.871803,40.945045 76.709435,40.966602 
	C68.622116,42.040249 60.532658,43.098953 52.454426,44.237236 
	C51.944809,44.309044 51.580097,45.114170 51.049965,45.389317 
	C49.279057,46.308464 47.436153,47.089935 45.673229,48.023132 
	C44.070160,48.871708 42.535454,49.849419 40.356400,50.999413 
	C39.922726,51.045521 39.489056,51.091629 38.632454,50.576572 
	C37.598206,50.604843 36.563961,50.633114 35.529713,50.661381 
	C35.761189,51.562992 35.992661,52.464603 36.016964,53.752884 
	C35.806633,53.976868 35.548492,54.103027 34.446815,54.050106 
	C27.427380,54.970959 27.973732,61.391895 25.469604,66.143150 
	C25.226633,66.346794 25.032021,66.589256 24.191729,67.030579 
	C20.655983,68.565331 18.893562,71.220436 19.001028,75.027412 
	C19.001028,75.027412 19.107718,75.081596 18.273495,75.020401 
	C12.294814,75.352928 10.067658,79.184799 12.132238,86.542297 
	C12.756109,87.323822 13.379980,88.105347 14.386577,89.509125 
	C17.579676,90.351433 20.772776,91.193748 24.052235,92.615417 
	C24.701231,92.740997 25.350225,92.866585 26.746859,92.995110 
	C27.494127,93.000168 28.241396,93.005234 29.095587,93.667358 
	C35.724331,96.726830 38.296597,95.988045 39.520149,90.673332 
	C33.435551,86.721107 33.416836,81.385391 36.764797,74.015770 
	C38.017731,78.311768 38.854218,81.504036 39.896305,84.627716 
	C40.492775,86.415657 41.770035,89.659271 42.150043,89.575272 
	C45.786427,88.771378 49.674034,93.484955 53.352287,88.912132 
	C53.352287,88.912132 53.750145,88.855347 54.506084,88.957985 
	C55.627342,89.492775 56.748600,90.027557 58.328598,90.781151 
	C55.721302,92.518166 53.723381,93.468620 52.297016,94.964195 
	C51.610569,95.683952 51.415482,97.964806 52.010006,98.619179 
	C54.238754,101.072258 65.035629,102.234108 68.762543,100.715401 
	C69.168518,100.840675 69.574501,100.965958 70.096069,101.743164 
	C71.086525,101.772278 72.076988,101.801399 73.720711,101.826309 
	C74.137138,101.943863 74.553558,102.061417 75.130119,102.875435 
	C79.090729,105.714417 83.298592,107.025894 88.539185,104.962105 
	C88.539185,104.962105 88.975975,105.177925 89.500145,105.655472 
	C91.991127,105.500801 94.482109,105.346138 97.216072,105.176392 
	C97.656570,108.727402 101.130096,109.759102 104.754539,111.084221 
	C108.883850,112.593910 112.804329,111.150627 117.051987,111.879059 
	C119.344276,115.107201 122.125038,114.491905 125.714478,112.873619 
	C126.149391,113.004456 126.584312,113.135292 127.453583,113.663696 
	C127.838600,113.684433 128.223618,113.705170 129.376129,113.692863 
	C130.346786,113.863708 131.322632,114.009430 132.287231,114.209488 
	C138.521179,115.502319 139.857605,114.847954 141.925034,109.092163 
	C143.363098,105.088554 144.623764,101.021233 146.362549,96.408951 
	C148.012711,91.709511 149.662888,87.010071 151.826370,81.828606 
	C152.838760,78.885101 153.851135,75.941589 155.174072,72.339500 
	C158.757843,62.605701 162.742233,52.992630 165.729782,43.079144 
	C166.938477,39.068386 165.971115,34.401844 166.066208,29.503674 
	C166.003204,29.336861 165.940216,29.170046 165.879486,28.295197 
	C162.669708,22.733742 156.147614,20.872770 147.240814,23.193514 
	C142.206726,24.482809 137.172653,25.772106 131.455048,26.975595 
	C130.637939,27.265099 129.820816,27.554604 128.600693,28.073715 
	C128.600693,28.073715 128.137115,28.058903 127.506256,28.000015 
	C127.007515,28.321049 126.508774,28.642080 125.363533,29.023621 
	C124.720123,29.082878 124.076714,29.142138 122.758240,29.083054 
	C122.176262,29.357363 121.594292,29.631670 120.578484,30.175526 
	C120.245209,30.197466 119.911934,30.219404 118.727043,30.088718 
	C117.142006,30.646721 115.556969,31.204721 113.413872,32.038239 
	C112.622215,32.235352 111.830566,32.432461 110.911469,32.085148 
	C110.273300,32.388321 109.635132,32.691494 109.000000,33.000137 
	C109.000000,33.000137 108.993858,32.995632 108.433426,32.954872 
z"/>
<path fill="#FAEFEB" opacity="1.000000" stroke="none" 
	d="
M116.812874,111.170166 
	C112.804329,111.150627 108.883850,112.593910 104.754539,111.084221 
	C101.130096,109.759102 97.656570,108.727402 97.216072,105.176392 
	C94.482109,105.346138 91.991127,105.500801 89.614548,105.368164 
	C90.503944,103.732452 91.278938,102.384056 92.037018,101.036385 
	C92.020103,101.037109 92.045631,101.055603 92.371506,100.868301 
	C99.659813,99.760513 101.071640,97.423668 98.320068,91.313438 
	C98.357697,91.190216 98.200096,90.986351 98.201508,90.627792 
	C97.600403,88.777512 96.997902,87.285805 96.397362,85.764404 
	C96.399330,85.734726 96.425529,85.681320 96.397369,85.301346 
	C95.118652,81.089233 93.868080,77.257103 92.514900,73.110519 
	C95.174332,72.936623 97.577171,72.779503 100.217995,72.755768 
	C100.618217,72.971321 100.780464,73.053490 100.970085,73.522430 
	C102.091248,78.072662 103.185036,82.236115 104.646431,87.798851 
	C106.362602,83.591164 107.825363,80.939240 108.520287,78.099426 
	C109.821877,72.780396 112.948196,71.713684 117.869934,73.388985 
	C117.439812,74.857025 117.027542,76.264130 116.655258,77.697327 
	C116.695251,77.723412 116.605545,77.756165 116.359879,77.943314 
	C115.741486,79.086311 115.368759,80.042152 114.870667,81.164917 
	C114.745293,81.331833 114.724205,81.748810 114.743980,81.755051 
	C114.763756,81.761299 114.757637,81.802322 114.470352,81.998253 
	C110.075729,90.331444 105.968407,98.468704 101.511871,107.297798 
	C105.537285,108.091759 110.263634,109.023972 115.295502,110.033264 
	C116.086586,110.385017 116.572159,110.659668 116.997589,110.994400 
	C116.937447,111.054474 116.812874,111.170166 116.812874,111.170166 
z"/>
<path fill="#C21743" opacity="1.000000" stroke="none" 
	d="
M127.019226,113.266121 
	C126.584312,113.135292 126.149391,113.004456 125.115112,112.649078 
	C122.974678,112.017792 121.433609,111.611053 119.929428,110.797890 
	C120.311584,109.512520 120.549683,107.933868 121.018570,107.862061 
	C126.133728,107.078629 124.849182,103.217659 125.039276,100.008461 
	C125.115364,98.723862 125.446999,97.454407 126.023178,96.330681 
	C133.637253,99.626419 139.191391,95.994469 144.915726,92.072906 
	C145.454636,93.819870 145.709167,95.401123 145.963684,96.982376 
	C144.623764,101.021233 143.363098,105.088554 141.925034,109.092163 
	C139.857605,114.847954 138.521179,115.502319 132.287231,114.209488 
	C131.322632,114.009430 130.346786,113.863708 128.777023,113.506508 
	C127.791687,113.302139 127.405457,113.284134 127.019226,113.266121 
z"/>
<path fill="#FBF2E8" opacity="1.000000" stroke="none" 
	d="
M53.026604,89.147751 
	C49.674034,93.484955 45.786427,88.771378 42.150043,89.575272 
	C41.770035,89.659271 40.492775,86.415657 39.896305,84.627716 
	C38.854218,81.504036 38.017731,78.311768 36.764797,74.015770 
	C33.416836,81.385391 33.435551,86.721107 39.520149,90.673332 
	C38.296597,95.988045 35.724331,96.726830 29.457680,93.335358 
	C30.652784,92.960175 31.485796,92.916992 32.696617,92.867897 
	C34.033104,92.861984 34.991787,92.861984 36.334511,92.861984 
	C34.871269,90.056152 33.598282,87.615135 32.334118,84.718582 
	C31.561693,78.179176 33.460094,72.853386 37.172142,67.864555 
	C37.671139,67.547325 37.866066,67.282928 38.261353,66.856674 
	C39.176537,66.077271 39.809296,65.399208 40.520569,64.673401 
	C40.599083,64.625656 40.758213,64.533691 40.801456,64.534195 
	C40.844700,64.534706 40.929764,64.550369 41.311775,64.498581 
	C43.796021,63.640850 45.898258,62.834915 48.438679,62.070030 
	C53.597488,63.399128 58.318111,64.687180 63.049889,66.234741 
	C63.109390,66.660477 63.157734,66.826706 63.099281,67.178726 
	C62.992493,67.364517 62.880585,67.778244 62.575714,67.877274 
	C61.429169,68.892532 60.587498,69.808754 59.859016,70.856750 
	C59.972202,70.988518 59.741322,70.723259 59.521217,70.775810 
	C59.301113,70.828362 59.003399,71.169243 58.655937,71.215118 
	C57.841457,71.274460 57.374439,71.287918 56.706131,70.982346 
	C52.943932,68.814201 49.415257,67.910004 46.011772,71.010269 
	C46.000000,70.999695 46.019138,71.024689 45.722507,71.081604 
	C44.907936,71.722618 44.389999,72.306725 43.908997,72.938683 
	C43.945934,72.986542 43.917011,72.869141 43.660774,72.951935 
	C43.265064,73.355400 43.125584,73.676086 42.993614,73.998375 
	C43.001122,73.999985 42.992844,73.986397 42.677116,74.195007 
	C40.831486,78.044640 39.610268,81.678696 42.615685,85.234421 
	C42.626118,85.251175 42.605572,85.285202 42.651344,85.662262 
	C45.158390,90.338348 49.316547,88.998512 53.026604,89.147751 
z"/>
<path fill="#CD303A" opacity="1.000000" stroke="none" 
	d="
M100.942711,73.135658 
	C100.780464,73.053490 100.618217,72.971321 100.030312,72.495712 
	C98.399040,71.737892 97.193420,71.373489 96.181961,70.739967 
	C97.062737,69.357773 98.605759,67.743744 98.295708,67.213692 
	C96.415451,63.999348 94.202209,60.963123 91.922020,58.004730 
	C90.130577,55.680458 88.024872,53.601280 86.160080,51.330048 
	C82.733978,47.157215 78.862610,43.852947 73.024895,43.774010 
	C73.011116,43.537174 72.998604,43.062866 73.305641,42.892998 
	C75.098274,42.160439 76.583878,41.597748 78.069473,41.035053 
	C78.069473,41.035053 78.547668,41.058483 79.163055,41.000050 
	C83.509598,40.336002 87.240753,39.730392 90.750298,39.384583 
	C86.633667,41.877514 87.553421,44.402119 90.283981,46.744301 
	C97.556725,52.982624 98.786949,63.308434 105.876106,69.668655 
	C106.245598,70.000160 105.819351,71.233360 106.188469,71.547485 
	C106.968307,72.211136 108.029648,72.544006 108.839645,73.343613 
	C107.634186,76.057411 106.564583,78.440178 105.436134,80.954041 
	C103.668167,77.877853 102.305443,75.506760 100.942711,73.135658 
z"/>
<path fill="#D5723D" opacity="1.000000" stroke="none" 
	d="
M32.325294,85.174118 
	C33.598282,87.615135 34.871269,90.056152 36.334511,92.861984 
	C34.991787,92.861984 34.033104,92.861984 32.373962,92.635788 
	C25.783617,91.235352 19.893734,90.061111 14.003853,88.886871 
	C13.379980,88.105347 12.756109,87.323822 12.181479,85.960800 
	C14.523053,81.946732 16.815386,78.514168 19.107718,75.081596 
	C19.107718,75.081596 19.001028,75.027412 19.263983,75.036057 
	C19.786791,74.877457 20.070929,74.803505 20.779507,74.895218 
	C24.349512,77.950974 27.265018,75.982964 30.074709,74.568977 
	C30.819864,78.080276 31.572580,81.627197 32.325294,85.174118 
z"/>
<path fill="#9E0E45" opacity="1.000000" stroke="none" 
	d="
M165.877213,29.003227 
	C165.940216,29.170046 166.003204,29.336861 165.733673,30.051683 
	C164.279465,36.852226 163.614456,43.231491 161.923065,49.325901 
	C159.700195,57.335255 156.669327,65.120361 153.851440,73.310364 
	C153.132019,75.068237 152.547043,76.517639 151.605988,77.910645 
	C150.839127,76.560371 150.428345,75.266495 150.298874,73.740814 
	C152.058838,67.674019 153.537476,61.839016 155.273926,55.800125 
	C156.216110,52.655872 156.995819,49.733749 157.562897,46.770927 
	C158.448395,42.144318 159.453674,37.514599 159.887360,32.837898 
	C160.124588,30.279610 159.292191,27.622135 159.299606,25.032242 
	C161.730469,26.371138 163.803833,27.687181 165.877213,29.003227 
z"/>
<path fill="#D36035" opacity="1.000000" stroke="none" 
	d="
M37.978920,66.958023 
	C37.866066,67.282928 37.671139,67.547325 36.867748,67.732849 
	C34.751801,68.468407 33.162243,69.222328 30.368292,70.547485 
	C29.956869,68.286392 29.484808,65.692047 29.106007,62.880005 
	C29.359365,62.375240 29.589739,62.165272 30.146126,61.891117 
	C30.564627,61.406971 30.727390,61.064114 30.964447,60.449738 
	C31.419449,59.786861 31.800158,59.395512 32.372185,58.878738 
	C32.792988,58.532681 32.930355,58.264790 33.068291,57.642418 
	C33.854832,56.267254 34.548691,55.199306 35.242550,54.131363 
	C35.548492,54.103027 35.806633,53.976868 36.352524,53.489586 
	C36.688087,53.226288 37.029587,52.881977 37.281452,52.834854 
	C37.784100,52.559925 38.034885,52.332119 38.496040,52.025188 
	C38.933689,51.724518 39.050011,51.455078 39.055382,51.137737 
	C39.489056,51.091629 39.922726,51.045521 41.048843,50.907383 
	C45.824501,49.897053 49.907715,48.978748 53.991520,48.290646 
	C53.992115,48.520844 53.980034,48.981136 53.637726,49.138618 
	C49.015305,50.713539 44.735191,52.130978 40.596146,53.501698 
	C40.188248,59.791759 45.479897,56.384079 48.000488,57.987675 
	C48.000488,59.313984 48.000488,60.671482 48.000488,62.028976 
	C45.898258,62.834915 43.796021,63.640850 41.296009,64.244080 
	C40.736286,64.085297 40.574341,64.129234 40.412399,64.173172 
	C40.527672,64.293343 40.642944,64.413521 40.758213,64.533691 
	C40.758213,64.533691 40.599083,64.625656 40.215767,64.464844 
	C38.602970,64.761536 35.061222,63.604149 37.978920,66.958023 
M31.589956,63.243664 
	C31.603737,63.591911 31.617517,63.940159 31.631298,64.288406 
	C31.755901,63.860245 31.880505,63.432087 32.278805,62.892014 
	C32.184570,62.926338 32.090336,62.960659 31.589956,63.243664 
z"/>
<path fill="#FBF2E8" opacity="1.000000" stroke="none" 
	d="
M68.123016,100.701645 
	C65.035629,102.234108 54.238754,101.072258 52.010006,98.619179 
	C51.415482,97.964806 51.610569,95.683952 52.297016,94.964195 
	C53.723381,93.468620 55.721302,92.518166 58.328598,90.781151 
	C56.748600,90.027557 55.627342,89.492775 54.314919,88.663727 
	C54.739086,87.838554 55.354427,87.307648 56.309959,86.779495 
	C57.094357,86.870857 57.538563,86.959473 58.083145,87.301003 
	C58.634319,87.826538 59.085114,88.099159 59.577396,88.372215 
	C59.618885,88.372643 59.664642,88.441864 59.729385,88.667107 
	C59.980881,89.175468 60.243591,89.326775 60.596745,89.390457 
	C60.611225,89.434647 60.619251,89.527290 60.686512,89.830002 
	C60.154240,91.367661 59.554710,92.602608 58.634712,93.980392 
	C57.259922,94.897034 56.205593,95.670837 54.334011,97.044456 
	C59.563766,98.178360 63.784935,99.093582 68.052414,100.179131 
	C68.098717,100.349464 68.123016,100.701645 68.123016,100.701645 
z"/>
<path fill="#87244B" opacity="1.000000" stroke="none" 
	d="
M153.985901,73.001900 
	C156.669327,65.120361 159.700195,57.335255 161.923065,49.325901 
	C163.614456,43.231491 164.279465,36.852226 165.697556,30.316708 
	C165.971115,34.401844 166.938477,39.068386 165.729782,43.079144 
	C162.742233,52.992630 158.757843,62.605701 154.799408,72.669258 
	C154.424728,72.999016 153.985916,73.001900 153.985901,73.001900 
z"/>
<path fill="#FBE9E6" opacity="1.000000" stroke="none" 
	d="
M53.990925,48.060448 
	C49.907715,48.978748 45.824501,49.897053 41.355953,50.792778 
	C42.535454,49.849419 44.070160,48.871708 45.673229,48.023132 
	C47.436153,47.089935 49.279057,46.308464 51.049965,45.389317 
	C51.580097,45.114170 51.944809,44.309044 52.454426,44.237236 
	C60.532658,43.098953 68.622116,42.040249 76.709435,40.966602 
	C76.871803,40.945045 77.039375,40.962631 77.636993,40.998505 
	C76.583878,41.597748 75.098274,42.160439 72.914864,42.865845 
	C66.141678,44.692520 60.066299,46.376484 53.990925,48.060448 
z"/>
<path fill="#FBE9E6" opacity="1.000000" stroke="none" 
	d="
M90.971901,39.124779 
	C87.240753,39.730392 83.509598,40.336002 79.381729,40.902657 
	C79.172394,40.414902 79.281380,39.630867 79.558548,39.566059 
	C87.738487,37.653389 95.935143,35.812180 104.480118,34.186852 
	C104.831100,34.414093 104.702705,34.836731 104.326797,34.875652 
	C101.299194,35.620937 98.647514,36.327301 95.638237,37.001404 
	C93.844398,37.687691 92.408150,38.406235 90.971901,39.124779 
z"/>
<path fill="#88284C" opacity="1.000000" stroke="none" 
	d="
M146.163116,96.695663 
	C145.709167,95.401123 145.454636,93.819870 145.055054,91.724709 
	C146.000656,88.153076 147.091278,85.095352 148.381531,82.189522 
	C149.372513,82.217316 150.163879,82.093208 151.045624,82.053497 
	C151.136032,82.137894 151.313049,82.310631 151.313049,82.310631 
	C149.662888,87.010071 148.012711,91.709511 146.163116,96.695663 
z"/>
<path fill="#FBEDDC" opacity="1.000000" stroke="none" 
	d="
M18.690605,75.050995 
	C16.815386,78.514168 14.523053,81.946732 12.067024,85.679855 
	C10.067658,79.184799 12.294814,75.352928 18.690605,75.050995 
z"/>
<path fill="#B51F4D" opacity="1.000000" stroke="none" 
	d="
M104.702705,34.836731 
	C104.702705,34.836731 104.831100,34.414093 104.925049,34.214298 
	C105.471191,33.992985 105.923393,33.971470 106.974899,33.867100 
	C108.047424,33.521378 108.520638,33.258503 108.993858,32.995632 
	C108.993858,32.995632 109.000000,33.000137 109.350105,33.019424 
	C110.146446,32.902328 110.592674,32.765949 111.038910,32.629570 
	C111.830566,32.432461 112.622215,32.235352 114.056015,31.938236 
	C116.324989,31.305939 117.951820,30.773642 119.578659,30.241344 
	C119.911934,30.219404 120.245209,30.197466 121.124901,30.069363 
	C122.258644,29.709265 122.845978,29.455332 123.433304,29.201397 
	C124.076714,29.142138 124.720123,29.082878 125.778381,29.269032 
	C126.751480,29.556070 127.309723,29.597696 127.779205,29.948475 
	C127.126411,30.508381 126.562386,30.759134 125.661560,31.010963 
	C124.548958,31.336615 123.773140,31.661188 122.620689,31.988317 
	C121.490982,32.007694 120.737923,32.024517 119.689728,32.050034 
	C118.927521,32.369904 118.460442,32.681084 117.597733,33.041328 
	C112.933586,32.942093 109.296806,37.315407 104.702705,34.836731 
z"/>
<path fill="#BB6055" opacity="1.000000" stroke="none" 
	d="
M68.442780,100.708527 
	C68.123016,100.701645 68.098717,100.349464 68.282684,100.135040 
	C68.466644,99.920624 68.927322,99.830986 69.361282,99.881409 
	C73.502655,100.310974 77.210060,100.690117 81.180397,101.331848 
	C83.628448,102.065315 85.813560,102.536186 88.329597,102.989166 
	C89.791649,102.326065 90.922791,101.680862 92.053925,101.035660 
	C91.278938,102.384056 90.503944,103.732452 89.352463,105.129395 
	C88.975975,105.177925 88.539185,104.962105 88.001450,104.721794 
	C83.299133,103.713982 79.134560,102.946480 74.969986,102.178970 
	C74.553558,102.061417 74.137138,101.943863 73.154907,101.599167 
	C71.719559,101.278435 70.850014,101.184837 69.980476,101.091240 
	C69.574501,100.965958 69.168518,100.840675 68.442780,100.708527 
z"/>
<path fill="#872A4E" opacity="1.000000" stroke="none" 
	d="
M165.878357,28.649212 
	C163.803833,27.687181 161.730469,26.371138 158.999603,24.892733 
	C154.895660,24.497013 151.449188,24.263655 148.003784,23.821804 
	C148.004852,23.613312 148.009720,23.196350 148.009720,23.196350 
	C156.147614,20.872770 162.669708,22.733742 165.878357,28.649212 
z"/>
<path fill="#FBEDDC" opacity="1.000000" stroke="none" 
	d="
M32.180862,59.004158 
	C31.800158,59.395512 31.419449,59.786861 30.705715,60.585941 
	C30.211920,61.339916 30.051153,61.686165 29.890387,62.032410 
	C29.589739,62.165272 29.359365,62.375240 28.840599,63.026527 
	C27.695658,64.300903 26.909380,65.211075 26.056091,66.058334 
	C25.989079,65.995430 25.851864,65.873123 25.851864,65.873123 
	C27.973732,61.391895 27.427380,54.970959 34.844681,54.090736 
	C34.548691,55.199306 33.854832,56.267254 32.850388,57.745766 
	C32.247311,58.365780 32.127663,58.648388 32.180862,59.004158 
z"/>
<path fill="#96254C" opacity="1.000000" stroke="none" 
	d="
M147.625275,23.194931 
	C148.009720,23.196350 148.004852,23.613312 147.843292,24.125242 
	C146.119415,25.417793 144.557129,26.198414 142.572754,26.983255 
	C138.770233,27.659731 135.389786,28.331985 131.622086,29.005178 
	C130.204147,28.998051 129.173477,28.989986 128.095734,28.751448 
	C128.048645,28.520975 128.137115,28.058903 128.137115,28.058903 
	C128.137115,28.058903 128.600693,28.073715 129.137329,27.999046 
	C130.495514,27.636721 131.317032,27.349060 132.138565,27.061401 
	C137.172653,25.772106 142.206726,24.482809 147.625275,23.194931 
z"/>
<path fill="#FBF2E8" opacity="1.000000" stroke="none" 
	d="
M75.050049,102.527206 
	C79.134560,102.946480 83.299133,103.713982 87.757858,104.724304 
	C83.298592,107.025894 79.090729,105.714417 75.050049,102.527206 
z"/>
<path fill="#FBEDDC" opacity="1.000000" stroke="none" 
	d="
M14.195215,89.197998 
	C19.893734,90.061111 25.783617,91.235352 31.996151,92.641693 
	C31.485796,92.916992 30.652784,92.960175 29.404221,93.006828 
	C28.241396,93.005234 27.494127,93.000168 26.203163,92.747360 
	C25.094936,92.345100 24.530407,92.190575 23.965876,92.036057 
	C20.772776,91.193748 17.579676,90.351433 14.195215,89.197998 
z"/>
<path fill="#FBEDDC" opacity="1.000000" stroke="none" 
	d="
M20.379353,74.822823 
	C20.070929,74.803505 19.786791,74.877457 19.306808,75.077850 
	C18.893562,71.220436 20.655983,68.565331 24.621128,67.033432 
	C25.050528,67.036293 25.220882,67.196297 25.122986,67.522972 
	C23.476511,70.174042 21.927931,72.498428 20.379353,74.822823 
z"/>
<path fill="#C67C57" opacity="1.000000" stroke="none" 
	d="
M55.969765,86.776749 
	C55.354427,87.307648 54.739086,87.838554 53.936947,88.612404 
	C53.750145,88.855347 53.352287,88.912132 53.189445,89.029938 
	C49.316547,88.998512 45.158390,90.338348 43.010754,85.740005 
	C46.074772,88.363136 49.240829,88.703232 52.841366,87.152786 
	C53.766582,86.754364 54.920769,86.887695 55.969765,86.776749 
z"/>
<path fill="#FAEFEB" opacity="1.000000" stroke="none" 
	d="
M119.892532,111.204315 
	C121.433609,111.611053 122.974678,112.017792 124.773277,112.658821 
	C122.125038,114.491905 119.344276,115.107201 116.932434,111.524612 
	C116.812874,111.170166 116.937447,111.054474 117.349907,111.049408 
	C118.472420,111.097664 119.182480,111.150986 119.892532,111.204315 
z"/>
<path fill="#88284C" opacity="1.000000" stroke="none" 
	d="
M153.851456,73.310364 
	C153.985916,73.001900 154.424728,72.999016 154.644135,72.998550 
	C153.851135,75.941589 152.838760,78.885101 151.569702,82.069618 
	C151.313049,82.310631 151.136032,82.137894 151.064636,81.705734 
	C151.316162,80.171402 151.639114,79.069214 151.962051,77.967033 
	C152.547043,76.517639 153.132019,75.068237 153.851456,73.310364 
z"/>
<path fill="#FBE9E6" opacity="1.000000" stroke="none" 
	d="
M37.029587,52.881977 
	C37.029587,52.881977 36.688087,53.226288 36.456112,53.296249 
	C35.992661,52.464603 35.761189,51.562992 35.529713,50.661385 
	C36.563961,50.633114 37.598206,50.604843 38.843918,50.857155 
	C39.050011,51.455078 38.933689,51.724518 38.238167,52.065590 
	C37.523144,52.417400 37.276363,52.649689 37.029587,52.881977 
z"/>
<path fill="#FBE4EC" opacity="1.000000" stroke="none" 
	d="
M119.152847,30.165031 
	C117.951820,30.773642 116.324989,31.305939 114.335037,31.800480 
	C115.556969,31.204721 117.142006,30.646721 119.152847,30.165031 
z"/>
<path fill="#FBF2E8" opacity="1.000000" stroke="none" 
	d="
M70.038269,101.417206 
	C70.850014,101.184837 71.719559,101.278435 72.828270,101.601273 
	C72.076988,101.801399 71.086525,101.772278 70.038269,101.417206 
z"/>
<path fill="#FBE4EC" opacity="1.000000" stroke="none" 
	d="
M127.821686,28.029459 
	C128.137115,28.058903 128.048645,28.520975 127.956894,28.886662 
	C127.865143,29.252348 127.867966,29.639320 127.867966,29.639320 
	C127.309723,29.597696 126.751480,29.556070 126.101639,29.238779 
	C126.508774,28.642080 127.007515,28.321049 127.821686,28.029459 
z"/>
<path fill="#FBE4EC" opacity="1.000000" stroke="none" 
	d="
M110.975189,32.357357 
	C110.592674,32.765949 110.146446,32.902328 109.348587,33.016689 
	C109.635132,32.691494 110.273300,32.388321 110.975189,32.357357 
z"/>
<path fill="#FBF2E8" opacity="1.000000" stroke="none" 
	d="
M24.009056,92.325737 
	C24.530407,92.190575 25.094936,92.345100 25.829346,92.745895 
	C25.350225,92.866585 24.701231,92.740997 24.009056,92.325737 
z"/>
<path fill="#FBE4EC" opacity="1.000000" stroke="none" 
	d="
M131.796814,27.018497 
	C131.317032,27.349060 130.495514,27.636721 129.338837,27.884243 
	C129.820816,27.554604 130.637939,27.265099 131.796814,27.018497 
z"/>
<path fill="#FBE4EC" opacity="1.000000" stroke="none" 
	d="
M123.095772,29.142227 
	C122.845978,29.455332 122.258644,29.709265 121.341812,29.934589 
	C121.594292,29.631670 122.176262,29.357363 123.095772,29.142227 
z"/>
<path fill="#FBE4EC" opacity="1.000000" stroke="none" 
	d="
M108.713638,32.975250 
	C108.520638,33.258503 108.047424,33.521378 107.295151,33.751736 
	C107.488533,33.464439 107.960983,33.209656 108.713638,32.975250 
z"/>
<path fill="#FAEFEB" opacity="1.000000" stroke="none" 
	d="
M127.236404,113.464905 
	C127.405457,113.284134 127.791687,113.302139 128.393280,113.523026 
	C128.223618,113.705170 127.838600,113.684433 127.236404,113.464905 
z"/>
<path fill="#FBEDDC" opacity="1.000000" stroke="none" 
	d="
M24.968147,66.953415 
	C25.032021,66.589256 25.226633,66.346794 25.660734,66.008133 
	C25.851864,65.873123 25.989079,65.995430 25.968317,66.286148 
	C25.794178,66.887573 25.551954,67.094048 25.220882,67.196297 
	C25.220882,67.196297 25.050528,67.036293 24.968147,66.953415 
z"/>
<path fill="#CC1D3C" opacity="1.000000" stroke="none" 
	d="
M119.929428,110.797890 
	C119.182480,111.150986 118.472420,111.097664 117.410049,110.989334 
	C116.572159,110.659668 116.086586,110.385017 115.255554,109.661865 
	C114.010078,105.755684 111.378082,101.467621 112.557785,99.007004 
	C115.315956,93.254013 114.082848,87.507721 114.757637,81.802322 
	C114.757637,81.802322 114.763756,81.761299 115.070526,81.815659 
	C115.898170,81.554306 116.419052,81.238594 116.940765,80.522835 
	C116.829582,79.333916 116.717560,78.545036 116.605545,77.756165 
	C116.605545,77.756165 116.695251,77.723412 117.004593,77.714722 
	C117.697769,78.874535 118.485046,80.075104 118.395157,81.205956 
	C118.019508,85.931915 117.334763,90.650871 122.265045,93.718979 
	C122.260590,93.743500 122.218361,93.769981 122.157700,94.186707 
	C123.220566,95.123726 124.344101,95.644020 125.516502,96.165009 
	C125.565369,96.165703 125.662323,96.178055 125.662323,96.178055 
	C125.446999,97.454407 125.115364,98.723862 125.039276,100.008461 
	C124.849182,103.217659 126.133728,107.078629 121.018570,107.862061 
	C120.549683,107.933868 120.311584,109.512520 119.929428,110.797890 
z"/>
<path fill="#D14537" opacity="1.000000" stroke="none" 
	d="
M92.037018,101.036377 
	C90.922791,101.680862 89.791649,102.326065 88.364044,102.639061 
	C88.034035,100.859802 88.000496,99.412743 88.085220,97.703735 
	C88.453300,96.928513 88.703102,96.415245 89.063721,95.575462 
	C89.396217,93.880569 89.617912,92.512184 89.774025,90.799957 
	C87.777023,88.135010 84.507080,86.035072 86.486847,82.552925 
	C87.474358,80.815994 89.998466,79.952682 91.783379,78.724586 
	C93.669548,81.551208 95.047539,83.616264 96.425529,85.681320 
	C96.425529,85.681320 96.399330,85.734726 96.270348,86.144218 
	C96.827606,88.031258 97.513847,89.508804 98.200096,90.986351 
	C98.200096,90.986351 98.357697,91.190216 98.244812,91.763336 
	C98.248161,95.870934 97.591606,98.803917 93.239655,99.260185 
	C92.783905,99.307968 92.440933,100.431290 92.045631,101.055603 
	C92.045631,101.055603 92.020103,101.037109 92.037018,101.036377 
z"/>
<path fill="#C62D3F" opacity="1.000000" stroke="none" 
	d="
M114.470352,81.998253 
	C114.082848,87.507721 115.315956,93.254013 112.557785,99.007004 
	C111.378082,101.467621 114.010078,105.755684 114.950035,109.584778 
	C110.263634,109.023972 105.537285,108.091759 101.511871,107.297798 
	C105.968407,98.468704 110.075729,90.331444 114.470352,81.998253 
z"/>
<path fill="#B34153" opacity="1.000000" stroke="none" 
	d="
M122.269493,93.694450 
	C117.334763,90.650871 118.019508,85.931915 118.395157,81.205956 
	C118.485046,80.075104 117.697769,78.874535 116.964600,77.688637 
	C117.027542,76.264130 117.439812,74.857025 117.869934,73.388985 
	C112.948196,71.713684 109.821877,72.780396 108.520287,78.099426 
	C107.825363,80.939240 106.362602,83.591164 104.646431,87.798851 
	C103.185036,82.236115 102.091248,78.072662 100.970085,73.522430 
	C102.305443,75.506760 103.668167,77.877853 105.436134,80.954041 
	C106.564583,78.440178 107.634186,76.057411 108.988808,73.069382 
	C110.194572,71.663063 111.115303,70.862022 112.433945,70.050964 
	C114.740700,70.188667 116.649551,70.336380 118.417854,70.473221 
	C118.710617,68.817665 118.966690,67.369530 119.642914,65.938423 
	C120.183472,68.934044 120.584770,71.933372 120.366600,74.886955 
	C119.893356,81.293694 118.801750,87.706642 122.269493,93.694450 
z"/>
<path fill="#BB6055" opacity="1.000000" stroke="none" 
	d="
M96.397369,85.301346 
	C95.047539,83.616264 93.669548,81.551208 91.783379,78.724586 
	C89.998466,79.952682 87.474358,80.815994 86.486847,82.552925 
	C84.507080,86.035072 87.777023,88.135010 89.413925,90.643967 
	C84.239143,89.577919 83.552185,86.797409 86.128807,78.443436 
	C87.638016,78.198006 89.203590,77.943413 90.905434,77.666656 
	C90.987633,76.103523 91.054344,74.834831 91.129524,73.405197 
	C89.409592,73.002205 87.879066,72.643593 85.977005,72.197929 
	C86.262558,70.540749 86.507637,69.118431 86.830475,67.504242 
	C86.937935,66.899986 86.967644,66.487602 87.226120,66.085892 
	C87.454887,66.096550 87.911720,66.129425 87.979568,66.472778 
	C90.168175,69.209953 92.094894,71.971252 95.987808,71.009087 
	C97.193420,71.373489 98.399040,71.737892 99.792336,72.362335 
	C97.577171,72.779503 95.174332,72.936623 92.514900,73.110519 
	C93.868080,77.257103 95.118652,81.089233 96.397369,85.301346 
z"/>
<path fill="#BB6055" opacity="1.000000" stroke="none" 
	d="
M92.371506,100.868301 
	C92.440933,100.431290 92.783905,99.307968 93.239655,99.260185 
	C97.591606,98.803917 98.248161,95.870934 98.207176,91.886559 
	C101.071640,97.423668 99.659813,99.760513 92.371506,100.868301 
z"/>
<path fill="#BB6055" opacity="1.000000" stroke="none" 
	d="
M98.201508,90.627792 
	C97.513847,89.508804 96.827606,88.031258 96.268379,86.173904 
	C96.997902,87.285805 97.600403,88.777512 98.201508,90.627792 
z"/>
<path fill="#B34153" opacity="1.000000" stroke="none" 
	d="
M116.359879,77.943314 
	C116.717560,78.545036 116.829582,79.333916 116.617691,80.542282 
	C115.861198,80.973862 115.428619,80.985931 114.996033,80.998001 
	C115.368759,80.042152 115.741486,79.086311 116.359879,77.943314 
z"/>
<path fill="#C62D3F" opacity="1.000000" stroke="none" 
	d="
M114.870667,81.164917 
	C115.428619,80.985931 115.861198,80.973862 116.616859,80.942337 
	C116.419052,81.238594 115.898170,81.554306 115.050751,81.809410 
	C114.724205,81.748810 114.745293,81.331833 114.870667,81.164917 
z"/>
<path fill="#FAEBF1" opacity="1.000000" stroke="none" 
	d="
M122.265045,93.718979 
	C118.801750,87.706642 119.893356,81.293694 120.366600,74.886955 
	C120.584770,71.933372 120.183472,68.934044 119.699463,65.638855 
	C119.648270,64.601639 119.960663,63.881023 120.478745,63.175560 
	C120.684425,63.190708 121.046295,62.992722 121.476456,63.032654 
	C124.355812,63.388882 126.805008,63.705177 129.154221,64.457832 
	C128.775177,67.338860 128.246948,69.785805 128.269272,72.227722 
	C128.314697,77.201591 128.657028,82.172745 128.869461,87.094376 
	C128.861893,87.043739 128.803375,87.127785 128.913528,87.505447 
	C131.415283,88.031960 133.806900,88.180794 136.214355,88.402985 
	C136.230209,88.476341 136.378113,88.502014 136.684921,88.453445 
	C137.375778,87.940254 137.759842,87.475639 138.352142,86.939255 
	C138.811096,86.656334 138.902863,86.390343 138.998810,85.842255 
	C139.178909,85.429276 139.195847,85.243546 139.475464,84.744431 
	C140.427582,77.400047 141.117004,70.369057 141.834213,63.054901 
	C145.362701,63.598145 150.290543,60.455151 149.624969,67.743340 
	C149.161880,71.186638 149.008301,74.314835 148.640900,77.698425 
	C148.429932,78.601463 148.432770,79.249084 148.323822,80.242935 
	C148.201965,81.071976 148.191925,81.554802 148.181900,82.037628 
	C147.091278,85.095352 146.000656,88.153076 144.770691,91.558990 
	C139.191391,95.994469 133.637253,99.626419 126.023178,96.330681 
	C125.662323,96.178055 125.565369,96.165703 125.358871,95.927856 
	C124.174370,95.050003 123.196365,94.409996 122.218361,93.769981 
	C122.218361,93.769981 122.260590,93.743500 122.265045,93.718979 
z"/>
<path fill="#D56939" opacity="1.000000" stroke="none" 
	d="
M56.309959,86.779495 
	C54.920769,86.887695 53.766582,86.754364 52.841366,87.152786 
	C49.240829,88.703232 46.074772,88.363136 42.964981,85.362946 
	C42.605572,85.285202 42.626118,85.251175 42.712635,84.832306 
	C42.863716,80.937759 42.928280,77.462074 42.992844,73.986397 
	C42.992844,73.986397 43.001122,73.999985 43.227684,73.885574 
	C43.608505,73.470482 43.762756,73.169815 43.917011,72.869141 
	C43.917011,72.869141 43.945934,72.986542 44.242004,72.945145 
	C45.031765,72.277397 45.525452,71.651047 46.019138,71.024689 
	C46.019138,71.024689 46.000000,70.999695 46.450706,71.013092 
	C50.236748,71.118118 53.572083,71.209747 56.907417,71.301376 
	C57.374439,71.287918 57.841457,71.274460 58.784512,71.351151 
	C59.420803,71.201942 59.581062,70.962601 59.741318,70.723259 
	C59.741322,70.723259 59.972202,70.988518 60.194347,70.922516 
	C61.263641,70.242249 62.110786,69.627975 63.298164,69.038483 
	C64.426476,70.019440 65.214561,70.975609 65.640060,72.033226 
	C65.115791,74.421806 64.954109,76.708939 64.826935,79.371254 
	C64.756088,80.486214 64.650742,81.225990 64.208664,82.104530 
	C62.787708,84.671288 61.703484,87.099289 60.619255,89.527290 
	C60.619251,89.527290 60.611225,89.434647 60.622284,89.104675 
	C60.310440,88.663757 59.987541,88.552811 59.664642,88.441864 
	C59.664642,88.441864 59.618885,88.372643 59.653732,88.098541 
	C59.119972,87.565659 58.551369,87.306870 57.982765,87.048088 
	C57.538563,86.959473 57.094357,86.870857 56.309959,86.779495 
z"/>
<path fill="#D4542F" opacity="1.000000" stroke="none" 
	d="
M48.438675,62.070026 
	C48.000488,60.671482 48.000488,59.313984 48.000488,57.987675 
	C45.479897,56.384079 40.188248,59.791759 40.596146,53.501698 
	C44.735191,52.130978 49.015305,50.713539 54.015930,49.146729 
	C55.491863,48.998688 56.247292,49.000027 57.005730,49.370110 
	C58.864605,51.833057 60.723946,53.924191 62.575233,56.022430 
	C64.069572,57.716110 65.554184,59.418354 66.982254,61.333405 
	C66.783791,61.844772 66.555679,62.024963 65.930618,62.215141 
	C65.081734,63.532490 64.539299,64.725281 63.757153,65.929382 
	C63.517445,65.940697 63.038734,65.975235 63.038734,65.975235 
	C58.318111,64.687180 53.597488,63.399128 48.438675,62.070026 
z"/>
<path fill="#D16A3B" opacity="1.000000" stroke="none" 
	d="
M25.122986,67.522972 
	C25.551954,67.094048 25.794178,66.887573 26.035328,66.349045 
	C26.909380,65.211075 27.695658,64.300903 28.747341,63.244221 
	C29.484808,65.692047 29.956869,68.286392 30.368292,70.547485 
	C33.162243,69.222328 34.751801,68.468407 36.645752,67.846191 
	C33.460094,72.853386 31.561693,78.179176 32.334118,84.718582 
	C31.572580,81.627197 30.819864,78.080276 30.074709,74.568977 
	C27.265018,75.982964 24.349512,77.950974 20.779507,74.895218 
	C21.927931,72.498428 23.476511,70.174042 25.122986,67.522972 
z"/>
<path fill="#BC6444" opacity="1.000000" stroke="none" 
	d="
M63.996864,65.918068 
	C64.539299,64.725281 65.081734,63.532490 65.868393,62.623402 
	C65.560059,69.961182 67.082771,70.920929 73.885437,68.133301 
	C73.305458,69.815033 72.728012,71.171234 71.721237,72.634262 
	C69.523003,72.723160 67.754105,72.705231 66.006378,72.498810 
	C66.027550,72.310326 66.002647,71.931786 66.002647,71.931786 
	C65.214561,70.975609 64.426476,70.019440 63.291058,68.728783 
	C62.922680,68.188950 62.901634,67.983597 62.880585,67.778244 
	C62.880585,67.778244 62.992493,67.364517 63.293823,67.053802 
	C63.818550,66.511688 63.952454,66.236679 63.996864,65.918068 
z"/>
<path fill="#C67C57" opacity="1.000000" stroke="none" 
	d="
M56.706131,70.982346 
	C53.572083,71.209747 50.236748,71.118118 46.462479,71.023666 
	C49.415257,67.910004 52.943932,68.814201 56.706131,70.982346 
z"/>
<path fill="#C67C57" opacity="1.000000" stroke="none" 
	d="
M42.677116,74.195007 
	C42.928280,77.462074 42.863716,80.937759 42.702202,84.815552 
	C39.610268,81.678696 40.831486,78.044640 42.677116,74.195007 
z"/>
<path fill="#D16A3B" opacity="1.000000" stroke="none" 
	d="
M38.261353,66.856674 
	C35.061222,63.604149 38.602970,64.761536 40.137253,64.512589 
	C39.809296,65.399208 39.176537,66.077271 38.261353,66.856674 
z"/>
<path fill="#C67C57" opacity="1.000000" stroke="none" 
	d="
M62.575714,67.877274 
	C62.901634,67.983597 62.922680,68.188950 62.950829,68.704010 
	C62.110786,69.627975 61.263641,70.242249 60.081161,70.790741 
	C60.587498,69.808754 61.429169,68.892532 62.575714,67.877274 
z"/>
<path fill="#C67C57" opacity="1.000000" stroke="none" 
	d="
M45.722507,71.081604 
	C45.525452,71.651047 45.031765,72.277397 44.205070,72.897293 
	C44.389999,72.306725 44.907936,71.722618 45.722507,71.081604 
z"/>
<path fill="#D16A3B" opacity="1.000000" stroke="none" 
	d="
M40.801456,64.534195 
	C40.642944,64.413521 40.527672,64.293343 40.412399,64.173172 
	C40.574341,64.129234 40.736286,64.085297 40.913998,64.295868 
	C40.929764,64.550369 40.844700,64.534706 40.801456,64.534195 
z"/>
<path fill="#C67C57" opacity="1.000000" stroke="none" 
	d="
M63.757156,65.929382 
	C63.952454,66.236679 63.818550,66.511688 63.400612,66.868019 
	C63.157734,66.826706 63.109390,66.660477 63.049889,66.234741 
	C63.038734,65.975235 63.517445,65.940697 63.757156,65.929382 
z"/>
<path fill="#C67C57" opacity="1.000000" stroke="none" 
	d="
M43.660774,72.951935 
	C43.762756,73.169815 43.608505,73.470482 43.220177,73.883957 
	C43.125584,73.676086 43.265064,73.355400 43.660774,72.951935 
z"/>
<path fill="#C67C57" opacity="1.000000" stroke="none" 
	d="
M59.521217,70.775810 
	C59.581062,70.962601 59.420803,71.201942 59.131973,71.305267 
	C59.003399,71.169243 59.301113,70.828362 59.521217,70.775810 
z"/>
<path fill="#CE2539" opacity="1.000000" stroke="none" 
	d="
M112.036041,70.060974 
	C111.115303,70.862022 110.194572,71.663063 109.124672,72.738342 
	C108.029648,72.544006 106.968307,72.211136 106.188469,71.547485 
	C105.819351,71.233360 106.245598,70.000160 105.876106,69.668655 
	C98.786949,63.308434 97.556725,52.982624 90.283981,46.744301 
	C87.553421,44.402119 86.633667,41.877514 90.750298,39.384579 
	C92.408150,38.406235 93.844398,37.687691 95.639374,37.329552 
	C96.001511,38.127491 96.004929,38.565018 96.005470,39.413002 
	C96.488335,41.619690 96.680244,43.569878 97.523285,45.178902 
	C99.096321,48.181175 101.118828,50.943874 102.826294,53.880688 
	C105.945419,59.245506 108.971275,64.664551 112.036041,70.060974 
z"/>
<path fill="#D23736" opacity="1.000000" stroke="none" 
	d="
M96.181961,70.739967 
	C92.094894,71.971252 90.168175,69.209953 88.010361,66.072845 
	C85.356705,61.094391 82.894958,56.752441 80.072510,52.659203 
	C77.969742,49.609665 75.400284,46.881912 73.038673,44.010849 
	C78.862610,43.852947 82.733978,47.157215 86.160080,51.330048 
	C88.024872,53.601280 90.130577,55.680458 91.922020,58.004730 
	C94.202209,60.963123 96.415451,63.999348 98.295708,67.213692 
	C98.605759,67.743744 97.062737,69.357773 96.181961,70.739967 
z"/>
<path fill="#D04236" opacity="1.000000" stroke="none" 
	d="
M73.024895,43.774010 
	C75.400284,46.881912 77.969742,49.609665 80.072510,52.659203 
	C82.894958,56.752441 85.356705,61.094391 87.942513,65.729492 
	C87.911720,66.129425 87.454887,66.096550 86.973068,65.789597 
	C84.659203,65.324165 82.827164,65.165680 80.996933,64.589218 
	C80.756218,62.586079 81.036285,60.579067 80.165855,59.500736 
	C78.153976,57.008312 75.397064,55.129795 73.279869,52.707287 
	C68.689598,47.455070 63.306778,46.378067 57.002720,49.001362 
	C56.247292,49.000027 55.491863,48.998688 54.358234,48.989243 
	C53.980034,48.981136 53.992115,48.520844 53.991520,48.290649 
	C60.066299,46.376484 66.141678,44.692520 72.607826,43.035713 
	C72.998604,43.062866 73.011116,43.537174 73.024895,43.774010 
z"/>
<path fill="#B51F4D" opacity="1.000000" stroke="none" 
	d="
M149.934448,67.428230 
	C150.290543,60.455151 145.362701,63.598145 141.834213,63.054901 
	C141.117004,70.369057 140.427582,77.400047 139.173096,84.721420 
	C138.406433,84.997520 138.204803,84.983253 138.003845,84.512192 
	C138.335922,79.370880 138.667313,74.686356 139.148712,69.660599 
	C139.205475,66.885841 139.112198,64.452316 139.389465,62.007271 
	C141.225006,61.398483 142.669098,60.741291 144.160828,60.220615 
	C145.690323,59.686752 148.489487,59.462486 148.585770,58.793652 
	C148.842926,57.007092 148.220062,54.933674 147.447433,53.196404 
	C146.270813,50.550732 144.669312,48.094494 143.255554,45.553730 
	C139.999573,39.702129 139.297287,32.115887 132.009354,29.004242 
	C135.389786,28.331985 138.770233,27.659731 142.609680,27.334923 
	C144.926743,29.880178 147.587173,31.795927 148.479141,34.333332 
	C150.457062,39.960079 151.488327,45.914673 153.040466,51.699398 
	C153.443848,53.202732 154.344086,54.572754 155.016113,56.004009 
	C153.537476,61.839016 152.058838,67.674019 150.298187,73.277588 
	C149.988937,71.173515 149.961700,69.300873 149.934448,67.428230 
z"/>
<path fill="#B01D51" opacity="1.000000" stroke="none" 
	d="
M155.273926,55.800125 
	C154.344086,54.572754 153.443848,53.202732 153.040466,51.699398 
	C151.488327,45.914673 150.457062,39.960079 148.479141,34.333332 
	C147.587173,31.795927 144.926743,29.880178 143.031769,27.330704 
	C144.557129,26.198414 146.119415,25.417793 147.842224,24.333735 
	C151.449188,24.263655 154.895660,24.497013 158.642120,24.869881 
	C159.292191,27.622135 160.124588,30.279610 159.887360,32.837898 
	C159.453674,37.514599 158.448395,42.144318 157.562897,46.770927 
	C156.995819,49.733749 156.216110,52.655872 155.273926,55.800125 
z"/>
<path fill="#8C204A" opacity="1.000000" stroke="none" 
	d="
M149.624969,67.743340 
	C149.961700,69.300873 149.988937,71.173515 150.016876,73.509384 
	C150.428345,75.266495 150.839127,76.560371 151.605988,77.910645 
	C151.639114,79.069214 151.316162,80.171402 150.974228,81.621346 
	C150.163879,82.093208 149.372513,82.217316 148.381531,82.189522 
	C148.191925,81.554802 148.201965,81.071976 148.500244,79.976364 
	C148.810547,78.723396 148.832626,78.083206 148.854706,77.443024 
	C149.008301,74.314835 149.161880,71.186638 149.624969,67.743340 
z"/>
<path fill="#D16A3B" opacity="1.000000" stroke="none" 
	d="
M32.005108,63.003925 
	C31.880505,63.432087 31.755901,63.860245 31.631298,64.288406 
	C31.617517,63.940159 31.603737,63.591911 31.794979,63.121834 
	C32.000000,63.000000 32.005108,63.003925 32.005108,63.003925 
z"/>
<path fill="#FBEDDC" opacity="1.000000" stroke="none" 
	d="
M37.281452,52.834854 
	C37.276363,52.649689 37.523144,52.417400 38.027798,52.144714 
	C38.034885,52.332119 37.784100,52.559925 37.281452,52.834854 
z"/>
<path fill="#D16A3B" opacity="1.000000" stroke="none" 
	d="
M32.372185,58.878735 
	C32.127663,58.648388 32.247311,58.365780 32.757706,58.052986 
	C32.930355,58.264790 32.792988,58.532681 32.372185,58.878735 
z"/>
<path fill="#D16A3B" opacity="1.000000" stroke="none" 
	d="
M30.146126,61.891117 
	C30.051153,61.686165 30.211920,61.339916 30.631420,60.857468 
	C30.727390,61.064114 30.564627,61.406971 30.146126,61.891117 
z"/>
<path fill="#D16A3B" opacity="1.000000" stroke="none" 
	d="
M31.998051,62.997490 
	C32.090336,62.960659 32.184570,62.926338 32.141956,62.947968 
	C32.005108,63.003925 32.000000,63.000000 31.998051,62.997490 
z"/>
<path fill="#C8673B" opacity="1.000000" stroke="none" 
	d="
M68.927322,99.830986 
	C68.927322,99.830986 68.466644,99.920624 68.236374,99.964706 
	C63.784935,99.093582 59.563766,98.178360 54.334011,97.044456 
	C56.205593,95.670837 57.259922,94.897034 58.827888,94.199875 
	C60.965263,94.801186 62.589005,95.325851 64.498215,95.837685 
	C65.229195,96.103569 65.674706,96.382286 66.115387,97.004089 
	C67.049477,98.175125 67.988403,99.003052 68.927322,99.830986 
z"/>
<path fill="#C67C57" opacity="1.000000" stroke="none" 
	d="
M64.212746,95.850510 
	C62.589005,95.325851 60.965263,94.801186 59.148354,94.057037 
	C59.554710,92.602608 60.154240,91.367661 60.686516,89.830002 
	C61.703484,87.099289 62.787708,84.671288 64.279266,82.516045 
	C64.528641,87.142708 64.370689,91.496605 64.212746,95.850510 
z"/>
<path fill="#C67C57" opacity="1.000000" stroke="none" 
	d="
M58.083145,87.301003 
	C58.551369,87.306870 59.119972,87.565659 59.612244,88.098114 
	C59.085114,88.099159 58.634319,87.826538 58.083145,87.301003 
z"/>
<path fill="#C67C57" opacity="1.000000" stroke="none" 
	d="
M59.729385,88.667107 
	C59.987541,88.552811 60.310440,88.663757 60.607803,89.060486 
	C60.243591,89.326775 59.980881,89.175468 59.729385,88.667107 
z"/>
<path fill="#CA113D" opacity="1.000000" stroke="none" 
	d="
M96.008347,39.002548 
	C96.004929,38.565018 96.001511,38.127491 95.996964,37.361816 
	C98.647514,36.327301 101.299194,35.620937 104.326797,34.875652 
	C109.296806,37.315407 112.933586,32.942093 117.848991,33.045086 
	C118.663353,33.001270 118.830833,33.002769 119.039841,33.377129 
	C121.185890,39.725056 123.004898,45.823429 125.510490,51.625298 
	C126.844437,54.714149 130.492157,56.856785 128.558853,61.007217 
	C126.420448,61.002968 124.709007,60.999298 122.959824,60.639923 
	C120.572891,56.758629 117.373306,53.523731 116.048424,49.647987 
	C113.132263,41.117241 107.730179,37.675064 98.625191,39.003502 
	C97.503609,39.002468 96.755974,39.002510 96.008347,39.002548 
z"/>
<path fill="#C80F3F" opacity="1.000000" stroke="none" 
	d="
M128.985809,61.007793 
	C130.492157,56.856785 126.844437,54.714149 125.510490,51.625298 
	C123.004898,45.823429 121.185890,39.725056 119.254593,33.273273 
	C119.698257,32.607342 119.883942,32.355598 119.984856,32.041336 
	C120.737923,32.024517 121.490982,32.007694 122.621536,32.397259 
	C125.220215,42.392929 129.805527,50.930504 134.310913,60.712734 
	C132.446838,64.335793 135.870270,67.110748 138.998688,70.001831 
	C138.667313,74.686356 138.335922,79.370880 138.077911,84.739243 
	C138.308746,85.713394 138.536865,85.928864 138.835678,86.069511 
	C138.902863,86.390343 138.811096,86.656334 138.003799,86.955841 
	C137.090851,87.530144 136.734482,88.016083 136.378113,88.502014 
	C136.378113,88.502014 136.230209,88.476341 135.798645,88.288345 
	C133.179169,87.776161 130.991272,87.451973 128.803375,87.127785 
	C128.803375,87.127785 128.861893,87.043739 128.925873,86.624664 
	C129.647903,78.807785 130.305939,71.409981 130.939606,63.697800 
	C130.272095,62.591545 129.628952,61.799671 128.985809,61.007793 
z"/>
<path fill="#C01747" opacity="1.000000" stroke="none" 
	d="
M131.622086,29.005177 
	C139.297287,32.115887 139.999573,39.702129 143.255554,45.553730 
	C144.669312,48.094494 146.270813,50.550732 147.447433,53.196404 
	C148.220062,54.933674 148.842926,57.007092 148.585770,58.793652 
	C148.489487,59.462486 145.690323,59.686752 144.160828,60.220615 
	C142.669098,60.741291 141.225006,61.398483 139.382843,61.571003 
	C138.216507,57.891586 137.648987,54.560562 136.563110,51.408089 
	C135.792297,49.170292 134.277008,47.196712 133.173035,45.064285 
	C130.754822,40.393284 128.386856,35.696274 125.998352,31.009884 
	C126.562386,30.759134 127.126411,30.508381 127.779205,29.948475 
	C127.867966,29.639320 127.865143,29.252348 128.003967,29.117134 
	C129.173477,28.989986 130.204147,28.998051 131.622086,29.005177 
z"/>
<path fill="#C61243" opacity="1.000000" stroke="none" 
	d="
M125.661568,31.010963 
	C128.386856,35.696274 130.754822,40.393284 133.173035,45.064285 
	C134.277008,47.196712 135.792297,49.170292 136.563110,51.408089 
	C137.648987,54.560562 138.216507,57.891586 139.012299,61.582527 
	C139.112198,64.452316 139.205475,66.885841 139.148712,69.660599 
	C135.870270,67.110748 132.446838,64.335793 134.310913,60.712734 
	C129.805527,50.930504 125.220215,42.392929 122.998184,32.394703 
	C123.773140,31.661188 124.548958,31.336615 125.661568,31.010963 
z"/>
<path fill="#C61243" opacity="1.000000" stroke="none" 
	d="
M119.689728,32.050030 
	C119.883942,32.355598 119.698257,32.607342 119.213058,32.900421 
	C118.830833,33.002769 118.663353,33.001270 118.244621,32.996017 
	C118.460442,32.681084 118.927521,32.369904 119.689728,32.050030 
z"/>
<path fill="#D16039" opacity="1.000000" stroke="none" 
	d="
M69.361282,99.881409 
	C67.988403,99.003052 67.049477,98.175125 66.450485,97.066986 
	C68.300331,96.145523 69.810257,95.504265 71.738396,94.717529 
	C72.800674,88.987617 73.444733,83.403168 74.331551,77.881897 
	C74.721794,78.023888 74.869270,78.102715 75.166870,78.481392 
	C76.068573,80.820793 76.820145,82.860336 77.623642,85.281647 
	C76.698540,93.679741 78.677589,96.328125 85.549446,96.159019 
	C86.685356,96.131073 87.818497,95.990509 88.952911,95.901978 
	C88.703102,96.415245 88.453300,96.928513 87.675751,97.713348 
	C84.687981,98.238983 81.488350,96.999008 80.917465,101.069260 
	C77.210060,100.690117 73.502655,100.310974 69.361282,99.881409 
z"/>
<path fill="#D4492F" opacity="1.000000" stroke="none" 
	d="
M81.180397,101.331848 
	C81.488350,96.999008 84.687981,98.238983 87.557480,97.975304 
	C88.000496,99.412743 88.034035,100.859802 88.033127,102.656952 
	C85.813560,102.536186 83.628448,102.065315 81.180397,101.331848 
z"/>
<path fill="#C21743" opacity="1.000000" stroke="none" 
	d="
M122.157700,94.186707 
	C123.196365,94.409996 124.174370,95.050003 125.310005,95.927170 
	C124.344101,95.644020 123.220566,95.123726 122.157700,94.186707 
z"/>
<path fill="#FBF2EC" opacity="1.000000" stroke="none" 
	d="
M75.016747,78.181541 
	C74.869270,78.102715 74.721794,78.023888 74.324020,77.528381 
	C74.414406,75.763512 74.755096,74.415329 75.076981,73.063232 
	C75.058189,73.059319 75.083679,73.094193 75.481476,73.079239 
	C77.392815,71.384438 78.906357,69.704590 80.419899,68.024742 
	C80.205688,67.553978 79.991470,67.083214 79.777260,66.612450 
	C82.102409,66.973679 84.427567,67.334900 86.752716,67.696121 
	C86.507637,69.118431 86.262558,70.540749 85.977005,72.197929 
	C87.879066,72.643593 89.409592,73.002205 91.129524,73.405197 
	C91.054344,74.834831 90.987633,76.103523 90.905434,77.666656 
	C89.203590,77.943413 87.638016,78.198006 86.128807,78.443436 
	C83.552185,86.797409 84.239143,89.577919 89.479507,90.987808 
	C89.617912,92.512184 89.396217,93.880569 89.063721,95.575462 
	C87.818497,95.990509 86.685356,96.131073 85.549446,96.159019 
	C78.677589,96.328125 76.698540,93.679741 77.755203,84.877380 
	C77.211037,81.970940 80.292892,78.083473 75.016747,78.181541 
z"/>
<path fill="#D01D3B" opacity="1.000000" stroke="none" 
	d="
M96.005470,39.413002 
	C96.755974,39.002510 97.503609,39.002468 98.692482,39.361374 
	C102.119736,41.073158 103.619553,43.438942 105.148018,46.387268 
	C108.513359,52.878807 112.758377,58.914295 116.576256,65.026825 
	C116.922401,64.321861 117.554024,63.035465 118.227188,61.664486 
	C118.993507,62.224815 119.633286,62.692612 120.273056,63.160408 
	C119.960663,63.881023 119.648270,64.601639 119.279327,65.621826 
	C118.966690,67.369530 118.710617,68.817665 118.417854,70.473221 
	C116.649551,70.336380 114.740700,70.188667 112.433945,70.050964 
	C108.971275,64.664551 105.945419,59.245506 102.826294,53.880688 
	C101.118828,50.943874 99.096321,48.181175 97.523285,45.178902 
	C96.680244,43.569878 96.488335,41.619690 96.005470,39.413002 
z"/>
<path fill="#C5624E" opacity="1.000000" stroke="none" 
	d="
M86.830475,67.504242 
	C84.427567,67.334900 82.102409,66.973679 79.777260,66.612450 
	C79.991470,67.083214 80.205688,67.553978 80.419899,68.024742 
	C78.906357,69.704590 77.392815,71.384438 75.498581,72.722122 
	C77.076965,69.922371 79.036041,67.464783 80.995117,65.007195 
	C82.827164,65.165680 84.659203,65.324165 86.744308,65.778938 
	C86.967644,66.487602 86.937935,66.899986 86.830475,67.504242 
z"/>
<path fill="#CD163D" opacity="1.000000" stroke="none" 
	d="
M120.478745,63.175560 
	C119.633286,62.692612 118.993507,62.224815 118.227188,61.664486 
	C117.554024,63.035465 116.922401,64.321861 116.576256,65.026825 
	C112.758377,58.914295 108.513359,52.878807 105.148018,46.387268 
	C103.619553,43.438942 102.119736,41.073158 99.066437,39.362446 
	C107.730179,37.675064 113.132263,41.117241 116.048424,49.647987 
	C117.373306,53.523731 120.572891,56.758629 122.641312,60.684689 
	C121.922455,61.721012 121.484375,62.356865 121.046295,62.992722 
	C121.046295,62.992722 120.684425,63.190708 120.478745,63.175560 
z"/>
<path fill="#9C1F3F" opacity="1.000000" stroke="none" 
	d="
M130.963989,64.012177 
	C130.305939,71.409981 129.647903,78.807785 128.933441,86.675308 
	C128.657028,82.172745 128.314697,77.201591 128.269272,72.227722 
	C128.246948,69.785805 128.775177,67.338860 129.439423,64.457520 
	C130.204407,64.017960 130.584198,64.015068 130.963989,64.012177 
z"/>
<path fill="#B92049" opacity="1.000000" stroke="none" 
	d="
M130.939606,63.697800 
	C130.584198,64.015068 130.204407,64.017960 129.539398,64.021164 
	C126.805008,63.705177 124.355812,63.388882 121.476456,63.032650 
	C121.484375,62.356865 121.922455,61.721012 122.679047,61.040390 
	C124.709007,60.999298 126.420448,61.002968 128.558853,61.007217 
	C129.628952,61.799671 130.272095,62.591545 130.939606,63.697800 
z"/>
<path fill="#9C1F3F" opacity="1.000000" stroke="none" 
	d="
M128.913528,87.505447 
	C130.991272,87.451973 133.179169,87.776161 135.782776,88.214989 
	C133.806900,88.180794 131.415283,88.031960 128.913528,87.505447 
z"/>
<path fill="#88284C" opacity="1.000000" stroke="none" 
	d="
M148.640900,77.698425 
	C148.832626,78.083206 148.810547,78.723396 148.612045,79.630142 
	C148.432770,79.249084 148.429932,78.601463 148.640900,77.698425 
z"/>
<path fill="#9C1F3F" opacity="1.000000" stroke="none" 
	d="
M136.684921,88.453445 
	C136.734482,88.016083 137.090851,87.530144 137.795563,87.027618 
	C137.759842,87.475639 137.375778,87.940254 136.684921,88.453445 
z"/>
<path fill="#9C1F3F" opacity="1.000000" stroke="none" 
	d="
M138.998810,85.842255 
	C138.536865,85.928864 138.308746,85.713394 138.077240,85.196037 
	C138.204803,84.983253 138.406433,84.997520 138.910416,85.034805 
	C139.195847,85.243546 139.178909,85.429276 138.998810,85.842255 
z"/>
<path fill="#FCF1E7" opacity="1.000000" stroke="none" 
	d="
M71.320183,94.863007 
	C69.810257,95.504265 68.300331,96.145523 66.455307,96.723892 
	C65.674706,96.382286 65.229195,96.103569 64.498215,95.837677 
	C64.370689,91.496605 64.528641,87.142708 64.615997,82.377289 
	C64.650742,81.225990 64.756088,80.486214 64.933548,78.979477 
	C65.332184,76.370789 65.658691,74.529053 65.985207,72.687302 
	C67.754105,72.705231 69.523003,72.723160 71.914764,72.760262 
	C72.537621,72.779434 72.941780,73.002838 72.933266,73.439514 
	C72.389893,80.871803 71.855042,87.867401 71.320183,94.863007 
z"/>
<path fill="#C67C57" opacity="1.000000" stroke="none" 
	d="
M66.006378,72.498817 
	C65.658691,74.529053 65.332184,76.370789 64.899055,78.604309 
	C64.954109,76.708939 65.115791,74.421806 65.640060,72.033226 
	C66.002647,71.931786 66.027550,72.310326 66.006378,72.498817 
z"/>
<path fill="#D34930" opacity="1.000000" stroke="none" 
	d="
M72.941780,73.002838 
	C72.941780,73.002838 72.537621,72.779434 72.344101,72.653442 
	C72.728012,71.171234 73.305458,69.815033 74.058975,67.813667 
	C75.304886,62.370903 73.781540,61.089077 67.043114,61.116802 
	C65.554184,59.418354 64.069572,57.716110 62.575233,56.022430 
	C60.723946,53.924191 58.864605,51.833057 57.005730,49.370110 
	C63.306778,46.378067 68.689598,47.455070 73.279869,52.707287 
	C75.397064,55.129795 78.153976,57.008312 80.165855,59.500736 
	C81.036285,60.579067 80.756218,62.586079 80.996933,64.589218 
	C79.036041,67.464783 77.076965,69.922371 75.100784,72.737076 
	C75.083679,73.094193 75.058189,73.059319 74.718552,73.036179 
	C73.899864,73.009644 73.420822,73.006241 72.941780,73.002838 
z"/>
<path fill="#FCEBE0" opacity="1.000000" stroke="none" 
	d="
M66.982254,61.333405 
	C73.781540,61.089077 75.304886,62.370903 74.061508,67.488144 
	C67.082771,70.920929 65.560059,69.961182 66.174843,62.498840 
	C66.555679,62.024963 66.783791,61.844772 66.982254,61.333405 
z"/>
<path fill="#BC6444" opacity="1.000000" stroke="none" 
	d="
M72.933266,73.439514 
	C73.420822,73.006241 73.899864,73.009644 74.737343,73.040092 
	C74.755096,74.415329 74.414406,75.763512 74.081253,77.465210 
	C73.444733,83.403168 72.800674,88.987617 71.738396,94.717529 
	C71.855042,87.867401 72.389893,80.871803 72.933266,73.439514 
z"/>
<path fill="#BC6444" opacity="1.000000" stroke="none" 
	d="
M75.166870,78.481392 
	C80.292892,78.083473 77.211037,81.970940 77.703293,84.495621 
	C76.820145,82.860336 76.068573,80.820793 75.166870,78.481392 
z"/>
</svg>